<?xml version="1.0" encoding="utf-8"?>
<!-- Generator: Adobe Illustrator 27.5.0, SVG Export Plug-In . SVG Version: 6.00 Build 0)  -->
<svg version="1.1" id="Layer_1" xmlns="http://www.w3.org/2000/svg" xmlns:xlink="http://www.w3.org/1999/xlink" x="0px" y="0px"
	 viewBox="0 0 248.602 251.913" style="enable-background:new 0 0 248.602 251.913;" xml:space="preserve">
<g>
    <!-- left sleeve -->
	<g>
		<g>
			<g>
				<g>
					<linearGradient id="SVGID_1_" gradientUnits="userSpaceOnUse" x1="5.6763" y1="228.3622" x2="36.7163" y2="228.3622">
						<stop  offset="0" style="stop-color:#EAEBEC"/>
						<stop  offset="0.0719" style="stop-color:#F0F0F1"/>
						<stop  offset="0.2857" style="stop-color:#FBFBFC"/>
						<stop  offset="0.5094" style="stop-color:#FFFFFF"/>
					</linearGradient>
					<path id="sleeveColor" style="fill:url(#SVGID_1_);" d="M7.253,218.149l-1.576,15.656c0,0,16.248,6.36,28.736,4.393l2.304-15.426L7.253,218.149z
						"/>
					<path style="fill:#DADBDC;" d="M29.24,239.06L29.24,239.06c-11.338,0-23.618-4.755-23.741-4.803
						c-0.203-0.08-0.328-0.284-0.306-0.501L6.77,218.1c0.013-0.133,0.081-0.254,0.186-0.335c0.106-0.081,0.239-0.116,0.372-0.095
						l29.464,4.623c0.264,0.042,0.444,0.288,0.405,0.551l-2.304,15.426c-0.032,0.21-0.195,0.375-0.405,0.408
						C32.872,238.931,31.107,239.06,29.24,239.06z M6.196,233.482c2.054,0.761,12.944,4.608,23.043,4.608h0
						c1.681,0,3.275-0.107,4.746-0.319l2.18-14.596l-28.482-4.469L6.196,233.482z"/>
				</g>
			</g>
			<g>
			    <path id="stripColor" transform="scale(0.01) translate(-0.6, 3)" transform-origin="155.786 26.775" style="fill:#8C8F91;" d="M6.579,224.835l-0.306,3.04c4.435,1.806,13.977,4.951,26.668,4.951
					c0.749,0,1.509-0.013,2.278-0.036l0.438-2.931C21.327,230.361,10.564,226.521,6.579,224.835z"/>
				<path id="stripColor" transform="translate(-0.6, -1)" transform-origin="155.786 26.775" style="fill:#8C8F91;" d="M6.579,224.835l-0.306,3.04c4.435,1.806,13.977,4.951,26.668,4.951
					c0.749,0,1.509-0.013,2.278-0.036l0.438-2.931C21.327,230.361,10.564,226.521,6.579,224.835z"/>
				
			</g>
			<g style="opacity:0;">
				<path style="fill:#ABACAE;" d="M7.253,218.149l-0.42,4.173c2.487,2.082,5.901,3.532,8.673,4.448
					c3.28,1.084,6.455,1.558,9.807,2.219c1.683,0.331,3.823,0.87,4.052,2.903c0.259,2.316-0.765,4.443-1.179,6.668
					c2.118,0.053,4.221-0.046,6.228-0.363l2.304-15.426L7.253,218.149z"/>
			</g>
		</g>
		<g>
			<path id="sleeveColor" style="fill:#656668;" d="M77.944,29.487c0,0-26.534,2.393-39.034,21.335s-24.544,71.957-29.394,105.76
				c-4.85,33.802-5.176,53.337-5.176,53.337s-1.125,9.589,3.519,11.034c0,0,14.267,5.751,25.584,5.174c0,0,4.379,0.737,7.598-7.977
				c6.453-17.473,20.047-69.946,33.788-125.128L77.944,29.487z"/>
			<path id="sleeveColor" style="fill:#656668;" d="M31.803,226.652c-10.975,0-23.995-5.197-24.125-5.25c-4.933-1.533-3.867-11.132-3.819-11.54
				c0-0.147,0.379-19.904,5.177-53.349c2.623-18.279,7.049-40.151,11.839-58.506c4.084-15.648,10.458-36.583,17.631-47.452
				C50.99,31.637,77.633,29.028,77.9,29.004c0.14-0.013,0.279,0.036,0.379,0.133c0.102,0.097,0.155,0.233,0.149,0.373l-3.116,63.535
				c-17.323,69.602-28.38,110.548-33.817,125.271c-2.848,7.711-6.686,8.311-7.795,8.311l0,0c-0.127,0-0.222-0.008-0.278-0.014
				C32.888,226.64,32.349,226.652,31.803,226.652z M77.432,30.034c-3.87,0.483-26.886,4.037-38.117,21.056
				C32.313,61.7,18.161,99.742,9.996,156.651c-4.79,33.386-5.167,53.081-5.171,53.276c-0.014,0.141-1.027,9.254,3.178,10.563
				c0.174,0.069,14.325,5.727,25.415,5.153c0.035-0.002,0.07,0,0.105,0.006c0.011,0.001,0.074,0.009,0.178,0.009
				c0.95,0,4.254-0.554,6.885-7.677c5.425-14.689,16.473-55.602,33.772-125.076L77.432,30.034z"/>
		</g>
		<path id="sleeveColor" style="opacity:0.5;fill:#A7A9AB;" d="M39.974,49.305c0.479-0.089,0.873-0.053,1.108,0.2
			c1.576,1.697,10.984,41.943,15.398,55.047c4.415,13.104-23.28-36.132-19.764-25.948c3.516,10.185,12.165,36.86,7.719,79.298
			s-11.138,62.921-14.813,63.05c-3.675,0.129-10.157-13.822-11.414-18.188c-1.256-4.365-1.144,9.215,0.74,14.308
			c1.667,4.505-10.28-0.301-13.816-21.445c-0.708,9.296-0.792,14.292-0.792,14.292s-1.125,9.589,3.519,11.034
			c0,0,14.267,5.751,25.584,5.174c0,0,4.379,0.737,7.598-7.977c6.453-17.473,20.047-69.946,33.788-125.128l3.116-63.534
			C77.944,29.487,52.85,31.756,39.974,49.305z"/>
	</g>
	
	<!-- right sleeve -->
	<g>
		<g>
			<g>
				<g>
					
						<linearGradient id="SVGID_00000085218377534412671170000003461658376629190050_" gradientUnits="userSpaceOnUse" x1="211.8868" y1="228.3622" x2="242.9268" y2="228.3622">
						<stop  offset="0" style="stop-color:#EAEBEC"/>
						<stop  offset="0.0719" style="stop-color:#F0F0F1"/>
						<stop  offset="0.2857" style="stop-color:#FBFBFC"/>
						<stop  offset="0.5094" style="stop-color:#FFFFFF"/>
					</linearGradient>
					<path id="sleeveColor" style="fill:url(#SVGID_00000085218377534412671170000003461658376629190050_);" d="M241.35,218.149l1.577,15.656
						c0,0-16.248,6.36-28.736,4.393l-2.304-15.426L241.35,218.149z"/>
					<path id="sleeveColor" style="fill:#DADBDC;" d="M219.363,239.06c-1.867,0-3.633-0.129-5.248-0.383c-0.209-0.033-0.374-0.198-0.405-0.408
						l-2.304-15.426c-0.039-0.263,0.141-0.509,0.404-0.551l29.464-4.623c0.132-0.02,0.266,0.014,0.372,0.095
						c0.105,0.082,0.173,0.203,0.186,0.335l1.576,15.656c0.022,0.216-0.103,0.421-0.306,0.501
						C242.98,234.305,230.701,239.06,219.363,239.06z M214.617,237.771c1.47,0.212,3.065,0.319,4.746,0.319
						c10.099,0,20.99-3.847,23.044-4.607l-1.487-14.776l-28.482,4.469L214.617,237.771z"/>
				</g>
			</g>
			<g>
				
				<path id="stripColors" transform="translate(-0.6, -1)" transform-origin="155.786 26.775" style="fill:#8C8F91;" d="M242.024,224.835l0.306,3.04c-4.435,1.806-13.977,4.951-26.668,4.951
					c-0.749,0-1.509-0.013-2.278-0.036l-0.438-2.931C227.276,230.361,238.039,226.521,242.024,224.835z"/>
				
			</g>
			
			<g style="opacity:0;">
				<path style="fill:#ABACAE;" d="M241.35,218.149l0.421,4.173c-2.488,2.082-5.901,3.532-8.673,4.448
					c-3.279,1.084-6.455,1.558-9.807,2.219c-1.682,0.331-3.823,0.87-4.051,2.903c-0.26,2.316,0.765,4.443,1.178,6.668
					c-2.118,0.053-4.221-0.046-6.227-0.363l-2.304-15.426L241.35,218.149z"/>
			</g>
		</g>
		<g>
			<path id="sleeveColor" style="fill:#656668;" d="M170.659,29.487c0,0,26.534,2.393,39.034,21.335c12.5,18.942,24.544,71.957,29.395,105.76
				c4.85,33.802,5.176,53.337,5.176,53.337s1.124,9.589-3.519,11.034c0,0-14.267,5.751-25.584,5.174c0,0-4.379,0.737-7.598-7.977
				c-6.453-17.473-20.047-69.946-33.788-125.128L170.659,29.487z"/>
			<path id="sleeveColor" style="fill:#656668;" d="M216.8,226.652c-0.545,0-1.085-0.013-1.62-0.039c-0.545,0.065-4.897,0.3-8.073-8.296
				c-5.437-14.723-16.495-55.67-33.803-125.178l-3.129-63.628c-0.007-0.14,0.047-0.276,0.148-0.373
				c0.102-0.097,0.242-0.146,0.379-0.133c0.268,0.024,26.911,2.633,39.396,21.551c7.172,10.869,13.546,31.804,17.63,47.452
				c4.791,18.355,9.216,40.227,11.839,58.506c4.799,33.445,5.177,53.202,5.181,53.397c0.044,0.36,1.111,9.959-3.86,11.505
				C240.795,221.455,227.774,226.652,216.8,226.652z M215.164,225.642c0.007,0,0.015,0.001,0.021,0.001
				c11.098,0.578,25.243-5.084,25.377-5.139c4.243-1.322,3.23-10.436,3.219-10.528c-0.006-0.243-0.385-19.946-5.174-53.324
				C230.442,99.742,216.29,61.7,209.288,51.089c-11.23-17.019-34.247-20.572-38.116-21.056l3.087,62.964
				c17.286,69.38,28.333,110.293,33.759,124.982c2.63,7.123,5.935,7.677,6.885,7.677c0.104,0,0.167-0.007,0.182-0.009
				C215.109,225.644,215.138,225.642,215.164,225.642z"/>
		</g>
		<path id="sleeveColor" style="opacity:0.5;fill:#A7A9AB;" d="M208.629,49.305c-0.48-0.089-0.874-0.053-1.108,0.2
			c-1.575,1.697-10.983,41.943-15.397,55.047c-4.415,13.104,23.28-36.132,19.764-25.948c-3.517,10.185-12.165,36.86-7.719,79.298
			c4.445,42.438,11.138,62.921,14.813,63.05c3.676,0.129,10.158-13.822,11.414-18.188c1.256-4.365,1.145,9.215-0.74,14.308
			c-1.666,4.505,10.281-0.301,13.817-21.445c0.707,9.296,0.792,14.292,0.792,14.292s1.124,9.589-3.519,11.034
			c0,0-14.267,5.751-25.584,5.174c0,0-4.379,0.737-7.598-7.977c-6.453-17.473-20.047-69.946-33.788-125.128l-3.116-63.534
			C170.659,29.487,195.753,31.756,208.629,49.305z"/>
	</g>
	
	<!-- body -->
	<g>
		<g >
			
				<linearGradient id="SVGID_00000039820513206677800820000011139051623185646267_" gradientUnits="userSpaceOnUse" x1="62.461" y1="233.9244" x2="187.5913" y2="233.9244">
				<stop  offset="0.5094" style="stop-color:#FFFFFF"/>
				<stop  offset="0.7116" style="stop-color:#FCFCFC"/>
				<stop  offset="0.8547" style="stop-color:#F3F3F4"/>
				<stop  offset="0.9792" style="stop-color:#E3E4E5"/>
				<stop  offset="1" style="stop-color:#E0E1E2"/>
			</linearGradient>
			<path id="bodyColor" style="fill:url(#SVGID_00000039820513206677800820000011139051623185646267_);" d="M62.461,220.2v19.911
				c0,0,26.19,7.032,57.23,7.518c31.04,0.485,64.263-7.549,67.9-10.079v-16.252L62.461,220.2z"/>
			<path id="bodyColor" style="fill:#DADBDC;" d="M122.417,248.133c-0.002,0-0.003,0-0.005,0c-0.909,0-1.822-0.006-2.728-0.021
				c-30.745-0.48-57.085-7.463-57.349-7.534c-0.211-0.057-0.359-0.249-0.359-0.468V220.2c0-0.129,0.052-0.253,0.144-0.344
				c0.092-0.091,0.214-0.143,0.346-0.141l125.13,1.098c0.266,0.003,0.481,0.219,0.481,0.485v16.252c0,0.159-0.078,0.307-0.208,0.398
				C184.217,240.487,152.706,248.133,122.417,248.133z M62.946,239.735c3.256,0.836,28.081,6.96,56.752,7.408
				c30.401,0.482,62.825-7.161,67.407-9.859v-15.505l-124.16-1.089V239.735z"/>
		</g>
		<g >
			
			<path id="stripColor" transform="translate(-0.6, -3)" transform-origin="155.786 26.775" style="fill:#8C8F91;" d="M127.014,240.03c32.325-0.972,52.544-6.331,60.577-8.924v-3.081
				c-7.141,2.356-27.692,8.106-60.664,9.097c-30.221,0.906-54.369-4.295-64.466-6.922v3.003c9.846,2.51,30.955,6.934,57.464,6.934
				C122.247,240.136,124.614,240.102,127.014,240.03z"/>
			
		</g>
		<g>
			<path id="bodyColor" style="fill:#FFFFFF;" d="M202.403,42.599c-5.925-6.386-16.214-9.214-17.712-9.6c0-0.015-0.002-0.048-0.002-0.048
				c-9.063-3.54-46.4-12.95-46.4-12.95h-27.756c0,0-37.338,9.41-46.4,12.95c0,0-11.501,2.749-17.902,9.648l14.789,71.15
				c-1.324,40.481-2.386,85.727-1.53,108.982c0,0,21.999,9.176,64.921,8.25c42.923,0.926,64.921-8.25,64.921-8.25
				c0.862-23.405-0.22-69.084-1.555-109.763L202.403,42.599z"/>
			<path id="bodyColor" style="fill:#FFFFFF;" d="M130.456,231.532c-0.002,0,0,0-0.002,0c-1.994,0-4.03-0.023-6.053-0.066
				c-2.002,0.043-4.039,0.066-6.032,0.066c-38.591,0-58.864-8.27-59.065-8.353c-0.175-0.073-0.291-0.241-0.298-0.43
				c-0.715-19.409-0.201-56.067,1.528-108.958L45.756,42.698c-0.032-0.153,0.013-0.313,0.12-0.428
				c6.427-6.927,17.67-9.676,18.145-9.79c8.922-3.49,46.021-12.854,46.395-12.949c0.038-0.01,0.079-0.015,0.118-0.015h27.756
				c0.04,0,0.08,0.005,0.119,0.015c0.374,0.094,37.471,9.458,46.458,12.969c0.049,0.02,0.094,0.046,0.134,0.079
				c2.338,0.619,11.989,3.472,17.759,9.691c0.107,0.115,0.151,0.275,0.119,0.428l-14.615,70.313
				c1.749,53.301,2.273,90.223,1.554,109.739c-0.007,0.189-0.123,0.357-0.298,0.43C189.319,223.263,169.047,231.532,130.456,231.532
				z M124.401,230.497c2.037,0.044,4.066,0.066,6.053,0.066c35.903,0,55.822-7.172,58.405-8.165
				c0.701-19.583,0.174-56.389-1.567-109.413c-0.001-0.039,0.002-0.077,0.01-0.115l14.576-70.122
				c-5.906-6.208-16.148-8.981-17.307-9.279c-0.089-0.022-0.167-0.069-0.227-0.131c-9.046-3.472-44.446-12.43-46.115-12.851h-27.635
				c-1.68,0.424-37.52,9.493-46.284,12.917c-0.176,0.046-11.294,2.767-17.553,9.344l14.737,70.903
				c0.008,0.037,0.011,0.076,0.01,0.114c-1.72,52.613-2.238,89.157-1.542,108.632c2.584,0.993,22.507,8.165,58.405,8.165
				C120.354,230.562,122.384,230.54,124.401,230.497z"/>
		</g>
		<path id="bodyColor" style="opacity:0.7;fill:#E5E6E7;" d="M202.403,42.599c-5.925-6.386-16.214-9.214-17.712-9.6
			c0-0.015-0.002-0.048-0.002-0.048c-9.063-3.54-46.4-12.95-46.4-12.95h-27.756c0,0-37.338,9.41-46.4,12.95
			c0,0-11.501,2.749-17.902,9.648l14.789,71.15c-1.324,40.481-2.386,85.727-1.53,108.982c0,0,21.999,9.176,64.921,8.25
			c42.923,0.926,64.921-8.25,64.921-8.25c0.862-23.405-0.22-69.084-1.555-109.763L202.403,42.599z M178.018,165.663
			c-4.077,50.198-49.006,68.629-80.813,53.438C65.397,203.911,65.21,114.253,65.21,114.253S50.175,51.445,48.962,46.157
			c-1.212-5.289,13.58-9.019,13.58-9.019l17.509-5.578c0,0,14.177,27.645,45.459,26.19c31.282-1.454,43.101-25.462,43.101-25.462
			c11.473,0.921,29.245,12.61,29.245,12.61l-15.52,67.9C182.337,112.798,182.095,115.465,178.018,165.663z"/>
		<g>
			
			 <g>
				
			</g> 
			<g id="buttons">
				
				<g>
					<g>
						<g>
							<path id="buttonColor" style="fill:#D3D5D6;" d="M126.352,64.026c0,1.238-1.004,2.243-2.243,2.243c-1.239,0-2.243-1.005-2.243-2.243
								c0-1.239,1.004-2.243,2.243-2.243C125.348,61.783,126.352,62.787,126.352,64.026z"/>
							<path style="fill:#818385;" d="M124.109,66.511c-1.371,0-2.486-1.115-2.486-2.485c0-1.371,1.115-2.486,2.486-2.486
								c1.371,0,2.485,1.115,2.485,2.486C126.595,65.396,125.48,66.511,124.109,66.511z M124.109,62.025
								c-1.104,0-2.001,0.898-2.001,2.001c0,1.103,0.897,2,2.001,2c1.103,0,2.001-0.897,2.001-2
								C126.11,62.923,125.212,62.025,124.109,62.025z"/>
						</g>
						<path id="buttonColor"  style="fill:#FFFFFF;" d="M124.802,63.651c0,0.599-0.485,1.084-1.084,1.084c-0.6,0-1.084-0.485-1.084-1.084
							c0-0.6,0.485-1.085,1.084-1.085C124.316,62.567,124.802,63.052,124.802,63.651z"/>
					</g>
					<g>
						<g>
							<path id="buttonColor" style="fill:#D3D5D6;" d="M126.352,94.402c0,1.238-1.004,2.243-2.243,2.243c-1.239,0-2.243-1.005-2.243-2.243
								c0-1.239,1.004-2.243,2.243-2.243C125.348,92.159,126.352,93.163,126.352,94.402z"/>
							<path style="fill:#818385;" d="M124.109,96.887c-1.371,0-2.486-1.115-2.486-2.485s1.115-2.486,2.486-2.486
								c1.371,0,2.485,1.115,2.485,2.486S125.48,96.887,124.109,96.887z M124.109,92.401c-1.104,0-2.001,0.897-2.001,2.001
								c0,1.103,0.897,2,2.001,2c1.103,0,2.001-0.897,2.001-2C126.11,93.299,125.212,92.401,124.109,92.401z"/>
						</g>
						<path id="buttonColor" style="fill:#FFFFFF;" d="M124.802,94.027c0,0.599-0.485,1.084-1.084,1.084c-0.6,0-1.084-0.485-1.084-1.084
							c0-0.6,0.485-1.085,1.084-1.085C124.316,92.942,124.802,93.428,124.802,94.027z"/>
					</g>
					<g>
						<g>
							<path id="buttonColor" style="fill:#D3D5D6;" d="M126.352,124.778c0,1.238-1.004,2.243-2.243,2.243c-1.239,0-2.243-1.005-2.243-2.243
								c0-1.239,1.004-2.243,2.243-2.243C125.348,122.535,126.352,123.539,126.352,124.778z"/>
							<path style="fill:#818385;" d="M124.109,127.263c-1.371,0-2.486-1.115-2.486-2.485s1.115-2.486,2.486-2.486
								c1.371,0,2.485,1.115,2.485,2.486S125.48,127.263,124.109,127.263z M124.109,122.777c-1.104,0-2.001,0.897-2.001,2.001
								c0,1.103,0.897,2,2.001,2c1.103,0,2.001-0.897,2.001-2C126.11,123.675,125.212,122.777,124.109,122.777z"/>
						</g>
						<path id="buttonColor" style="fill:#FFFFFF;" d="M124.802,124.403c0,0.599-0.485,1.084-1.084,1.084c-0.6,0-1.084-0.485-1.084-1.084
							c0-0.6,0.485-1.085,1.084-1.085C124.316,123.318,124.802,123.804,124.802,124.403z"/>
					</g>
					<g>
						<g>
							<path id="buttonColor" style="fill:#D3D5D6;" d="M126.352,155.154c0,1.238-1.004,2.243-2.243,2.243c-1.239,0-2.243-1.005-2.243-2.243
								c0-1.239,1.004-2.243,2.243-2.243C125.348,152.911,126.352,153.915,126.352,155.154z"/>
							<path style="fill:#818385;" d="M124.109,157.639c-1.371,0-2.486-1.115-2.486-2.485s1.115-2.486,2.486-2.486
								c1.371,0,2.485,1.115,2.485,2.486S125.48,157.639,124.109,157.639z M124.109,153.153c-1.104,0-2.001,0.897-2.001,2.001
								c0,1.103,0.897,2,2.001,2c1.103,0,2.001-0.897,2.001-2C126.11,154.051,125.212,153.153,124.109,153.153z"/>
						</g>
						<path id="buttonColor" style="fill:#FFFFFF;" d="M124.802,154.779c0,0.599-0.485,1.084-1.084,1.084c-0.6,0-1.084-0.485-1.084-1.084
							c0-0.6,0.485-1.085,1.084-1.085C124.316,153.694,124.802,154.18,124.802,154.779z"/>
					</g>
					<g>
						<g>
							<path id="buttonColor" style="fill:#D3D5D6;" d="M126.352,185.53c0,1.238-1.004,2.243-2.243,2.243c-1.239,0-2.243-1.005-2.243-2.243
								c0-1.239,1.004-2.243,2.243-2.243C125.348,183.287,126.352,184.291,126.352,185.53z"/>
							<path style="fill:#818385;" d="M124.109,188.015c-1.371,0-2.486-1.115-2.486-2.485s1.115-2.486,2.486-2.486
								c1.371,0,2.485,1.115,2.485,2.486S125.48,188.015,124.109,188.015z M124.109,183.529c-1.104,0-2.001,0.898-2.001,2.001
								c0,1.103,0.897,2.001,2.001,2.001c1.103,0,2.001-0.897,2.001-2.001C126.11,184.427,125.212,183.529,124.109,183.529z"/>
						</g>
						<path id="buttonColor" style="fill:#FFFFFF;" d="M124.802,185.155c0,0.599-0.485,1.084-1.084,1.084c-0.6,0-1.084-0.485-1.084-1.084
							c0-0.6,0.485-1.085,1.084-1.085C124.316,184.07,124.802,184.556,124.802,185.155z"/>
					</g>
					<g>
						<g>
							<path id="buttonColor" style="fill:#D3D5D6;" d="M126.352,215.906c0,1.238-1.004,2.243-2.243,2.243c-1.239,0-2.243-1.005-2.243-2.243
								c0-1.239,1.004-2.243,2.243-2.243C125.348,213.663,126.352,214.667,126.352,215.906z"/>
							<path  style="fill:#818385;" d="M124.109,218.391c-1.371,0-2.486-1.115-2.486-2.485c0-1.371,1.115-2.486,2.486-2.486
								c1.371,0,2.485,1.115,2.485,2.486C126.595,217.276,125.48,218.391,124.109,218.391z M124.109,213.905
								c-1.104,0-2.001,0.897-2.001,2.001c0,1.103,0.897,2,2.001,2c1.103,0,2.001-0.897,2.001-2
								C126.11,214.803,125.212,213.905,124.109,213.905z"/>
						</g>
						<path id="buttonColor" style="fill:#FFFFFF;" d="M124.802,215.531c0,0.599-0.485,1.084-1.084,1.084c-0.6,0-1.084-0.485-1.084-1.084
							c0-0.6,0.485-1.085,1.084-1.085C124.316,214.446,124.802,214.931,124.802,215.531z"/>
					</g>
					
				</g> 
			</g>
			<g id="zipper">
				<path id="zipper" transform="scale(1,1.2) translate(5, -20)" transform-origin="155.786 26.775" style="fill:#DADBDC;" d="M118.236,231.466c-0.269,0-0.485-0.217-0.485-0.485V55.932c0-0.137,0.058-0.267,0.158-0.359
					c0.102-0.092,0.234-0.136,0.373-0.124c0.044,0.003,4.473,0.408,8.604-0.327c0.267-0.05,0.515,0.128,0.563,0.392
					c0.047,0.264-0.129,0.516-0.392,0.563c-3.457,0.616-7.011,0.467-8.335,0.378v174.526
					C118.721,231.25,118.504,231.466,118.236,231.466z"/>
          <path id="zipper"  transform="scale(1,1) translate(9, 0.5)" transform-origin="155.786 26.775"  style="fill:#DADBDC;" d="M114.114,248.133c-0.268,0-0.485-0.217-0.485-0.485v-16.282c0-0.268,0.217-0.485,0.485-0.485
				s0.485,0.217,0.485,0.485v16.282C114.599,247.917,114.382,248.133,114.114,248.133z"/>
			</g>
      
			<g>
				<path id="pocketColor" style="fill:#656668;" d="M81.445,171.16c0,0-8.857,35.029-21.951,51.303v-11.857c0,0,12.412-21.582,15.792-42.68
					L81.445,171.16z"/>
				<path id="pocketColor" style="fill:#656668;" d="M59.494,222.948c-0.054,0-0.108-0.009-0.161-0.028c-0.194-0.068-0.324-0.252-0.324-0.458v-11.857
					c0-0.085,0.022-0.168,0.064-0.241c0.124-0.216,12.407-21.751,15.733-42.515c0.025-0.155,0.123-0.287,0.262-0.357
					c0.139-0.069,0.304-0.068,0.442,0.004l6.159,3.234c0.198,0.105,0.3,0.331,0.245,0.548c-0.089,0.352-9.034,35.319-22.044,51.488
					C59.778,222.883,59.638,222.948,59.494,222.948z M59.979,210.733v10.317c11.705-15.507,19.928-45.936,20.9-49.641l-5.224-2.743
					C72.282,188.617,60.943,209.025,59.979,210.733z"/>
			</g>
			<g>
				<path id="pocketColor" style="fill:#656668;" d="M167.157,171.16c0,0,8.857,35.029,21.951,51.303v-11.857c0,0-12.412-21.582-15.792-42.68
					L167.157,171.16z"/>
				<path id="pocketColor" style="fill:#656668;" d="M189.107,222.948c-0.144,0-0.284-0.064-0.378-0.181c-13.01-16.169-21.954-51.137-22.043-51.488
					c-0.055-0.217,0.046-0.444,0.245-0.548l6.159-3.234c0.138-0.072,0.303-0.074,0.442-0.004c0.14,0.07,0.237,0.203,0.262,0.357
					c3.327,20.764,15.61,42.299,15.734,42.515c0.042,0.073,0.064,0.157,0.064,0.241v11.857c0,0.206-0.13,0.389-0.324,0.458
					C189.216,222.939,189.162,222.948,189.107,222.948z M167.723,171.41c0.972,3.705,9.198,34.135,20.9,49.641v-10.317
					c-0.964-1.708-12.303-22.116-15.676-42.066L167.723,171.41z"/>
			</g>
		</g>
	</g>
	
 <!-- collor -->
 
	<g>
	
		<g>
    
      
<g id="collartype2" transform="scale(0.7) translate(-10, 3)" transform-origin="-70.762 5.775">
      <path id="collorColor"  d="M0 0 C1.34655332 -0.00015555 2.69310708 -0.00165381 4.03965759 -0.00440979 C6.84085254 -0.00578254 9.64152845 0.00657378 12.44262695 0.02954102 C16.00176809 0.0579506 19.56005109 0.0551659 23.11925602 0.0424509 C25.89313365 0.03543927 28.6668189 0.04334438 31.44067192 0.05570793 C33.38077071 0.06230704 35.32089682 0.05811803 37.26100159 0.05360413 C47.05034981 0.15693055 56.88943231 0.99203282 64.65234375 7.49609375 C64.65234375 8.15609375 64.65234375 8.81609375 64.65234375 9.49609375 C65.31234375 9.49609375 65.97234375 9.49609375 66.65234375 9.49609375 C67.88853174 11.34734586 69.03908129 13.25591592 70.15234375 15.18359375 C73.1575506 20.26133267 76.40632562 25.02450638 80.02734375 29.68359375 C80.67026367 30.51153442 80.67026367 30.51153442 81.32617188 31.35620117 C83.01995355 33.51091027 84.71264186 35.55639186 86.65234375 37.49609375 C87.21484375 40.12109375 87.21484375 40.12109375 86.65234375 43.49609375 C83.20598043 48.66040109 78.44701993 52.67384866 73.7421875 56.65625 C71.49603019 58.63370811 69.42574028 60.72570641 67.33984375 62.87109375 C63.98088547 66.2533377 60.5259506 69.46028829 56.90234375 72.55859375 C56.020625 73.31269531 55.13890625 74.06679687 54.23046875 74.84375 C51.28913244 76.72887918 50.06501718 77.21113009 46.65234375 76.49609375 C44.30078125 74.6328125 44.30078125 74.6328125 42.02734375 72.18359375 C41.27195312 71.38308594 40.5165625 70.58257812 39.73828125 69.7578125 C37.65234375 67.49609375 37.65234375 67.49609375 36.49243164 65.89941406 C33.64799603 63.73014036 30.57500053 63.88856189 27.125 63.78125 C26.38084335 63.75703476 25.63668671 63.73281952 24.86997986 63.70787048 C23.2907292 63.66638426 21.71121091 63.63420087 20.1315918 63.6105957 C18.53572303 63.57625688 16.94017903 63.51523297 15.34643555 63.42602539 C4.97251503 62.70955158 4.97251503 62.70955158 -3.94189453 67.26904297 C-5.57319499 68.89861061 -7.04867688 70.54987891 -8.47312927 72.36280823 C-9.77172852 74.00170898 -9.77172852 74.00170898 -12.34765625 76.49609375 C-17.29324659 76.46000841 -19.56367611 74.89095379 -23.03515625 71.49609375 C-26.5817045 68.13620594 -30.17051289 64.94023027 -33.97265625 61.87109375 C-48.61404481 49.96331663 -48.61404481 49.96331663 -51.34765625 44.49609375 C-51.73930634 40.54273167 -51.78858639 38.25166293 -49.765625 34.78515625 C-49.02957031 33.90601563 -48.29351562 33.026875 -47.53515625 32.12109375 C-42.97278415 26.42713805 -39.05245536 20.50499436 -35.24291992 14.28369141 C-27.11509192 1.32436305 -14.44623107 -0.12882799 0 0 Z " fill="black" transform="translate(199.34765625,3.50390625)"/>

<path id="innerColor" d="M0 0 C0.87443756 0.00570007 1.74887512 -0.01140015 2.64981079 -0.01727295 C4.49357926 -0.02666205 6.33736405 -0.03323248 8.18115234 -0.03710938 C10.93488789 -0.04672941 13.68784785 -0.07777598 16.44140625 -0.109375 C25.44660634 -0.16389934 34.22820822 0.17057072 43.140625 1.53125 C43.92142426 1.64797058 44.70222351 1.76469116 45.50668335 1.88494873 C49.76217729 2.61212551 53.16502712 3.53554044 56.6015625 6.203125 C57.41656509 9.38904423 57.16517791 11.24458189 55.4921875 14.08984375 C53.94437054 16.20769007 52.29818431 18.20285723 50.6015625 20.203125 C50.11816406 20.83089844 49.63476562 21.45867188 49.13671875 22.10546875 C41.59845394 31.48514176 31.12305483 38.46746131 20.95703125 44.69921875 C17.92336594 46.63613607 15.28452121 48.81021588 12.6015625 51.203125 C12.6015625 50.543125 12.6015625 49.883125 12.6015625 49.203125 C12.08464844 48.96464844 11.56773437 48.72617187 11.03515625 48.48046875 C-4.81195965 40.16264066 -23.46647367 26.74101037 -31.3984375 10.203125 C-31.0859375 7.390625 -31.0859375 7.390625 -30.3984375 5.203125 C-28.59024684 4.54532298 -26.77657907 3.90257292 -24.9609375 3.265625 C-23.95160156 2.90597656 -22.94226563 2.54632813 -21.90234375 2.17578125 C-14.73956442 0.1874512 -7.39687588 0.03868343 0 0 Z " fill="white" transform="translate(203.3984375,4.796875)"/>
</g>


<g id="collartype3" transform="scale(0.7) translate(-10, 3)" transform-origin="-70.762 15.775">
<path id="collorColor" d="M0 0 C2.60821359 0.00535617 5.21625451 0.00002279 7.82446289 -0.00634766 C37.21919174 -0.02599689 37.21919174 -0.02599689 46.90844727 6.36865234 C49.52071629 8.03033546 51.89821516 9.09585973 54.80297852 10.13037109 C63.25322897 13.35016106 69.51299414 17.9595638 74.17407227 25.72802734 C76.42551879 29.32449388 79.14267085 32.50786953 81.84594727 35.77099609 C85.37641849 40.31770104 87.21217651 43.25419319 86.67797852 49.13037109 C85.67797852 50.13037109 85.67797852 50.13037109 83.38061523 50.18041992 C81.88425537 50.13437622 81.88425537 50.13437622 80.35766602 50.08740234 C79.26454102 50.06613281 78.17141602 50.04486328 77.04516602 50.02294922 C74.74016507 49.97009405 72.43540415 49.90523588 70.13110352 49.82763672 C63.28547686 49.71942131 59.24033191 50.06999685 53.67797852 54.13037109 C52.33993164 55.01208984 52.33993164 55.01208984 50.97485352 55.91162109 C50.13438477 56.47880859 49.29391602 57.04599609 48.42797852 57.63037109 C29.84821843 69.5163272 2.1819508 71.42315303 -19.04223633 67.10424805 C-28.35813689 64.78661629 -38.71231183 60.53223229 -46.34033203 54.54663086 C-52.87017249 49.51161791 -58.19133436 49.4189206 -66.25952148 49.81787109 C-68.49769625 49.88777434 -70.73597804 49.95435627 -72.97436523 50.01708984 C-74.44377563 50.08222778 -74.44377563 50.08222778 -75.94287109 50.14868164 C-78.32202148 50.13037109 -78.32202148 50.13037109 -80.32202148 49.13037109 C-80.88940642 41.05695627 -76.27568768 35.71861401 -71.32202148 29.70068359 C-69.99629054 28.20405764 -68.6525454 26.7231843 -67.29077148 25.25927734 C-65.38069481 23.19381745 -63.60850631 21.05257423 -61.82202148 18.88037109 C-56.221961 12.52354567 -49.88148734 9.82608811 -41.96655273 7.17333984 C-39.44285751 6.17802725 -37.6679 5.05587774 -35.50952148 3.44287109 C-26.50000047 -2.46741312 -10.51046417 -0.02560885 0 0 Z " fill="#00000" transform="translate(214.322021484375,-0.13037109375)"/>
<path id="innerColor" d="M0 0 C1.28355881 -0.00570007 2.56711761 -0.01140015 3.88957214 -0.01727295 C6.58646025 -0.02769226 9.28331929 -0.03359644 11.98022461 -0.03710938 C15.42781952 -0.04263043 18.87502677 -0.06677216 22.32249928 -0.09508133 C25.63165881 -0.11819238 28.94076396 -0.12015258 32.25 -0.125 C33.48337601 -0.1373468 34.71675201 -0.1496936 35.98750305 -0.16241455 C37.13607285 -0.15941345 38.28464264 -0.15641235 39.46801758 -0.15332031 C40.47488113 -0.15696594 41.48174469 -0.16061157 42.51911926 -0.16436768 C45.73427666 0.26159156 47.6473221 1.37276942 50.29296875 3.203125 C48.55219383 7.40391718 45.61104209 10.56429205 42.73046875 14.015625 C36.74809509 21.31948631 31.94326395 29.00833728 27.29296875 37.203125 C26.74640625 38.09902344 26.19984375 38.99492188 25.63671875 39.91796875 C24.14865183 42.3308073 24.14865183 42.3308073 22.85546875 45.640625 C20.89624685 50.10765093 18.40879636 55.35370588 14.29296875 58.203125 C11.39453125 58.51171875 11.39453125 58.51171875 8.29296875 58.203125 C2.23428694 52.98890547 -1.05561889 43.72127883 -4.65209961 36.67773438 C-9.83624408 26.72511371 -16.21706355 17.35358964 -23.5703125 8.8671875 C-25.70703125 6.203125 -25.70703125 6.203125 -25.58203125 3.890625 C-24.70703125 2.203125 -24.70703125 2.203125 -23.70703125 1.203125 C-15.90389532 -0.13513272 -7.88860237 0.02740688 0 0 Z " fill="white" transform="translate(205.70703125,8.796875)"/>
</g>

<g id="collartype4" transform="scale(0.7) translate(-10, 3)" transform-origin="-70.762 5.775">
<path id="collorColor" d="M0 0 C0.78927887 -0.01007584 1.57855774 -0.02015167 2.39175415 -0.03053284 C4.99324828 -0.05896032 7.59416113 -0.06488664 10.19580078 -0.06811523 C12.01034786 -0.0777599 13.82489261 -0.08785264 15.63943481 -0.09837341 C19.44066779 -0.11632166 23.2416964 -0.12189578 27.04296875 -0.12011719 C31.90446724 -0.11981239 36.76465047 -0.16076836 41.62583733 -0.21243382 C45.37319917 -0.24585539 49.12024502 -0.25187301 52.86774063 -0.25028801 C54.65946105 -0.25381915 56.45119043 -0.26703867 58.24276352 -0.29028511 C60.75391454 -0.31981875 63.26223697 -0.3110082 65.7734375 -0.29296875 C66.5071759 -0.30982727 67.24091431 -0.32668579 67.99688721 -0.34405518 C73.29211858 -0.24781535 75.89231478 1.42327774 79.58581734 4.90972996 C82.04039599 7.52865432 83.97539694 10.40034778 85.94970703 13.38500977 C88.89982817 16.31282375 92.10395855 17.2090426 96.01611328 18.43579102 C96.69053467 18.65501221 97.36495605 18.8742334 98.05981445 19.10009766 C99.44005984 19.54609924 100.82169995 19.98780396 102.20458984 20.42553711 C118.4624137 25.61366357 138.44187153 32.44261404 151.01611328 44.43579102 C151.01611328 45.75579102 151.01611328 47.07579102 151.01611328 48.43579102 C147.45220381 49.62376084 144.62419224 49.55321542 140.86108398 49.54589844 C139.35630797 49.54644133 137.85153197 49.54702835 136.34675598 49.5476532 C135.54852732 49.54622503 134.75029865 49.54479687 133.92788124 49.54332542 C129.67272343 49.53978972 125.41769507 49.56565405 121.16259766 49.58618164 C115.76038716 49.61038629 110.35855564 49.62635437 104.95629883 49.61083984 C100.58228651 49.59905189 96.20921431 49.61691798 91.83534813 49.65328407 C90.18231409 49.66180091 88.52918779 49.65997293 86.87618446 49.64678001 C77.22324625 49.57559433 69.48240532 50.53614653 60.53781319 54.26887321 C54.98467361 56.57285582 50.24395869 57.33164198 44.27783203 57.26782227 C42.88115044 57.27999031 42.88115044 57.27999031 41.45625305 57.29240417 C39.51307882 57.30075585 37.5697842 57.2942695 35.62670898 57.27294922 C32.71571659 57.24839311 29.81141882 57.29319895 26.90087891 57.34399414 C17.57298072 57.38619959 10.04732853 56.84433186 1.54736328 52.91235352 C-12.87981603 46.522944 -30.09600471 48.6771627 -45.51922607 48.95513916 C-49.97791184 49.027684 -54.43688607 49.05891436 -58.89599609 49.09399414 C-67.59273885 49.1683141 -76.28809595 49.28724332 -84.98388672 49.43579102 C-85.31388672 47.78579102 -85.64388672 46.13579102 -85.98388672 44.43579102 C-77.87237204 38.19616434 -69.19453601 33.77069807 -59.98388672 29.43579102 C-59.25572754 29.08838867 -58.52756836 28.74098633 -57.77734375 28.38305664 C-50.39275312 24.87938329 -43.25847149 21.63145564 -35.27954102 19.76220703 C-26.03620592 17.57378949 -21.37266339 13.80581867 -15.49951172 6.39672852 C-10.88470563 0.96501576 -6.94911237 -0.01280549 0 0 Z " fill="#000000" transform="translate(185.98388671875,9.564208984375)"/>
<path id="innerColor" d="M0 0 C1.07848709 -0.0033284 2.15697418 -0.0066568 3.2681427 -0.01008606 C5.53626076 -0.01511601 7.80438613 -0.01749561 10.07250977 -0.01733398 C13.49312909 -0.01951442 16.91342214 -0.03769628 20.33398438 -0.05664062 C53.27902298 -0.14558495 53.27902298 -0.14558495 60.33203125 5.16796875 C61.26978705 9.64835757 59.90899092 13.17014024 57.74707031 17.05517578 C53.05397831 24.0624253 44.96289726 28.6096738 38.01953125 33.10546875 C31.29097287 37.48903155 24.80222581 41.89096445 18.68359375 47.10546875 C16.33203125 48.16796875 16.33203125 48.16796875 12.8828125 47.6015625 C9.32241324 46.16408557 6.87808006 44.62510227 3.89453125 42.23046875 C-0.25193519 38.98631513 -4.43694609 35.93321851 -8.81567383 33.01049805 C-17.68439825 27.08325278 -26.20774766 21.20346621 -30.66796875 11.16796875 C-31.23046875 7.91796875 -31.23046875 7.91796875 -30.66796875 5.16796875 C-22.40054986 -1.31190011 -9.96336346 0.01099297 0 0 Z " fill="white" transform="translate(203.66796875,13.83203125)"/>

</g>

 <!-- <path id="collorColor" style="fill:#656668;" d="M168.613,27.789c0,0-6.188-12.127-9.558-15.778c-2.414-2.617-20.659-6.86-26.97-7.41
					c0,0-0.952-0.109-2.565-0.205c-1.009-0.072-1.616-0.106-1.616-0.106l-0.002,0.029c-1.041-0.039-2.251-0.061-3.569-0.054
					c-1.319-0.007-2.529,0.015-3.57,0.054l-0.001-0.029c0,0-0.607,0.034-1.616,0.106c-1.613,0.096-2.565,0.205-2.565,0.205
					c-6.311,0.55-24.556,4.793-26.969,7.41c-3.369,3.651-9.558,15.778-9.558,15.778s11.494,20.2,43.845,26.851
					c0,0,0.279,0.162,0.871,0C157.119,47.989,168.613,27.789,168.613,27.789z"/>  -->
		

      <!-- collortype1 -->
      <g id="collartype1">
      			<g>
		
			<g >
      

				<path id="collorColor" style="fill:#656668;" d="M168.613,27.789c0,0-6.188-12.127-9.558-15.778c-2.414-2.617-20.659-6.86-26.97-7.41
					c0,0-0.952-0.109-2.565-0.205c-1.009-0.072-1.616-0.106-1.616-0.106l-0.002,0.029c-1.041-0.039-2.251-0.061-3.569-0.054
					c-1.319-0.007-2.529,0.015-3.57,0.054l-0.001-0.029c0,0-0.607,0.034-1.616,0.106c-1.613,0.096-2.565,0.205-2.565,0.205
					c-6.311,0.55-24.556,4.793-26.969,7.41c-3.369,3.651-9.558,15.778-9.558,15.778s11.494,20.2,43.845,26.851
					c0,0,0.279,0.162,0.871,0C157.119,47.989,168.613,27.789,168.613,27.789z"/>

        
			</g>
      	<g>
				
					<linearGradient id="SVGID_00000070824605889092804900000004216515271798812558_" gradientUnits="userSpaceOnUse" x1="80.4991" y1="37.5665" x2="168.3037" y2="37.5665">
					<stop  offset="0" style="stop-color:#EAEBEC"/>
					<stop  offset="0.0719" style="stop-color:#F0F0F1"/>
					<stop  offset="0.2857" style="stop-color:#FBFBFC"/>
					<stop  offset="0.5094" style="stop-color:#FFFFFF"/>
				</linearGradient>
				<path id="innerColor" style="fill:url(#SVGID_00000070824605889092804900000004216515271798812558_);" d="M125.927,20.552
					c-8.999-0.284-18.382-0.219-27.266,1.371c-6.486,1.16-12.332,3.75-18.162,6.579c2.372,3.619,14.641,20.226,43.398,26.138
					c0,0,0.279,0.162,0.871,0c29.332-6.03,41.518-23.198,43.536-26.35C154.631,23.751,140.327,21.007,125.927,20.552z"/>
				
					
			</g>
			<g>
				
					<linearGradient id="SVGID_00000016054855687005588910000009883192276694864553_" gradientUnits="userSpaceOnUse" x1="1063.8274" y1="64.4484" x2="1063.8274" y2="-1.7153" gradientTransform="matrix(-1 0 0 1 1210.1484 0)">
					<stop  offset="0" style="stop-color:#EAEBEC"/>
					<stop  offset="0.0719" style="stop-color:#F0F0F1"/>
					<stop  offset="0.2857" style="stop-color:#FBFBFC"/>
					<stop  offset="0.5094" style="stop-color:#FFFFFF"/>
					<stop  offset="0.7116" style="stop-color:#FCFCFC"/>
					<stop  offset="0.8547" style="stop-color:#F3F3F4"/>
					<stop  offset="0.9792" style="stop-color:#E3E4E5"/>
					<stop  offset="1" style="stop-color:#E0E1E2"/>
				</linearGradient>
				<path id="collorColor" style="fill:url(#SVGID_00000016054855687005588910000009883192276694864553_);" d="M158.868,12.011
					c0,0,8.221,11.581,9.558,15.778c1.337,4.197-16.496,25.556-44.28,28.143C124.146,55.932,158.637,21.803,158.868,12.011z"/>
				<path id="collorColor" style="fill:#DADBDC;" d="M124.146,56.417c-0.187,0-0.359-0.108-0.439-0.28c-0.087-0.186-0.047-0.406,0.099-0.55
					c0.343-0.34,34.354-34.101,34.578-43.587c0.005-0.209,0.143-0.391,0.343-0.452c0.201-0.06,0.416,0.013,0.538,0.183
					c0.337,0.476,8.28,11.691,9.624,15.912c0.441,1.387-0.756,3.627-1.838,5.261c-5.538,8.363-21.521,21.526-42.859,23.512
					C124.176,56.416,124.161,56.417,124.146,56.417z M159.175,13.295c-2.399,10.19-28.232,36.512-33.715,42.011
					c20.317-2.371,35.465-14.91,40.781-22.939c1.561-2.357,1.913-3.834,1.723-4.431C166.893,24.572,161.188,16.193,159.175,13.295z"
					/>
			</g> 
			
			
				 <g id="stripColor">
		<g>			
			<g>				
				<path id="stripColor"  style="fill:#8C8F91;" d="M162.786,17.775c-0.7-1.069-1.373-2.071-1.957-2.931c-0.89,2.419-2.361,5.417-4.817,9.001
					c-5.829,8.503-18.558,22.949-26.032,31.24c1.708-0.331,3.369-0.73,4.985-1.188c7.57-8.476,18.147-20.674,23.447-28.406
					C160.398,22.593,161.799,20.019,162.786,17.775z"/>					
			</g>
		</g>
		
	</g> 

			
		</g>
     <g>
			<g>
				
					<linearGradient id="SVGID_00000070799760038252844840000016098881684673802899_" gradientUnits="userSpaceOnUse" x1="10.969" y1="64.4484" x2="10.969" y2="-1.7153" gradientTransform="matrix(1 0 0 1 91.2578 0)">
					<stop  offset="0" style="stop-color:#EAEBEC"/>
					<stop  offset="0.0719" style="stop-color:#F0F0F1"/>
					<stop  offset="0.2857" style="stop-color:#FBFBFC"/>
					<stop  offset="0.5094" style="stop-color:#FFFFFF"/>
					<stop  offset="0.7116" style="stop-color:#FCFCFC"/>
					<stop  offset="0.8547" style="stop-color:#F3F3F4"/>
					<stop  offset="0.9792" style="stop-color:#E3E4E5"/>
					<stop  offset="1" style="stop-color:#E0E1E2"/>
				</linearGradient>
				<path id="collorColor" style="fill:url(#SVGID_00000070799760038252844840000016098881684673802899_);" d="M89.68,12.011
					c0,0-8.221,11.581-9.558,15.778c-1.337,4.197,16.496,25.556,44.28,28.143C124.402,55.932,89.911,21.803,89.68,12.011z"/>
				<path id="collorColor" style="fill:#DADBDC;" d="M124.402,56.417c-0.015,0-0.03,0-0.045-0.002c-21.338-1.986-37.321-15.149-42.859-23.512
					c-1.082-1.634-2.28-3.875-1.838-5.261c1.344-4.22,9.287-15.436,9.625-15.912c0.122-0.17,0.338-0.244,0.538-0.183
					c0.2,0.061,0.338,0.243,0.343,0.452c0.223,9.487,34.234,43.248,34.578,43.587c0.146,0.144,0.186,0.364,0.099,0.55
					C124.761,56.309,124.589,56.417,124.402,56.417z M89.373,13.295c-2.013,2.898-7.717,11.277-8.789,14.641
					c-0.19,0.597,0.163,2.074,1.723,4.431c5.316,8.029,20.463,20.568,40.781,22.939C117.605,49.808,91.771,23.486,89.373,13.295z"/>
			</g>
			
			<g>
			<g>
				<path id="stripColor" style="fill:#8C8F91;" d="M85.762,17.775c0.7-1.069,1.372-2.071,1.957-2.931c0.89,2.419,2.361,5.417,4.817,9.001
					c5.829,8.503,18.558,22.949,26.032,31.24c-1.708-0.331-3.37-0.73-4.986-1.188c-7.57-8.476-18.147-20.674-23.447-28.406
					C88.15,22.593,86.749,20.019,85.762,17.775z"/>	
			</g>
			
		</g>
			
		</g> 
		  

      <!-- Left Strips -->
 <g id="stripColor1" style="display:none;">
<path id="stripColor" style="fill:#8C8F91;" d="M6.169,228.91l-0.305,3.037c4.549,1.821,13.962,4.838,26.391,4.838
					c0.778,0,1.572-0.014,2.374-0.039l0.438-2.93C21,234.326,10.365,230.652,6.169,228.91z"/>
					<path id="stripColor" style="fill:#8C8F91;" d="M242.434,228.91l0.305,3.037c-4.548,1.821-13.961,4.838-26.391,4.838
					c-0.779,0-1.572-0.014-2.375-0.039l-0.438-2.93C227.603,234.326,238.238,230.652,242.434,228.91z"/>
	<path id="stripColor" transform="translate(-0.6, -2)" transform-origin="155.786 26.775" style="fill:#8C8F91;" d="M126.927,242.523c-30.226,0.906-54.376-4.415-64.466-7.099v3.008
				c9.867,2.571,31.032,7.104,57.602,7.104c2.278,0,4.598-0.033,6.952-0.103c21.95-0.661,38.428-3.595,48.387-5.941
				c5.353-1.26,9.415-2.476,12.19-3.398v-3.081C179.973,235.617,159.314,241.549,126.927,242.523z"/>				
  <g transform="scale(0.8) translate(-2, 1)" transform-origin="155.786 26.775">
    <path id="stripColor" style="fill:#8C8F91;"  d="M169.786,17.775c-0.7-1.069-1.373-2.071-1.957-2.931c-0.89,2.419-2.361,5.417-4.817,9.001
      c-5.829,8.503-18.558,22.949-26.032,31.24c1.708-0.331,3.369-0.73,4.985-1.188c7.57-8.476,18.147-20.674,23.447-28.406
      C167.398,22.593,168.799,20.019,169.786,17.775z"/>
  </g>
  <g transform="scale(0.8) translate(2, 3)" transform-origin="100.762 26.775">
    <path id="stripColor" style="fill:#8C8F91;"  d="M77.762,17.775c0.7-1.069,1.372-2.071,1.957-2.931c0.89,2.419,2.361,5.417,4.817,9.001
      c5.829,8.503,18.558,22.949,26.032,31.24c-1.708-0.331-3.37-0.73-4.986-1.188c-7.57-8.476-18.147-20.674-23.447-28.406
      C80.15,22.593,78.749,20.019,77.762,17.775z"/>
  </g>
</g>
<g>
			<path id="collorColor" transform="scale(0.9) translate(20, 5)"  style="fill:#CBCCCD;" d="M168.426,27.789c-0.575-1.807-2.427-4.982-4.349-8.012c-3.088,7.268-7.863,13.777-13.146,19.671
				c-3.778,4.214-8.016,7.375-13.122,9.823c-3.743,1.793-7.512,3.934-11.634,4.623c-1.271,1.287-2.029,2.039-2.029,2.039
				C151.93,53.345,169.763,31.986,168.426,27.789z"/>
				</g>
				<g>
			<path id="collorColor" transform="scale(0.9) translate(9, 5)" style="fill:#CBCCCD;" d="M122.165,53.682c-2.935-0.758-5.813-2.08-8.288-3.204c-5.441-2.473-10.689-5.494-15.323-9.291
				c-6.479-5.309-12.679-12.435-14.496-20.754c-1.769,2.824-3.401,5.68-3.936,7.356c-1.337,4.197,16.496,25.556,44.28,28.143
				C124.402,55.932,123.569,55.107,122.165,53.682z"/>
				</g> 
      </g>
			
<!-- collartype1 end -->



      
		</g>
	
		 
		 
	</g>

	</g>
	
</svg>

